<svg version="1.1" id="Layer_1" xmlns="http://www.w3.org/2000/svg" xmlns:xlink="http://www.w3.org/1999/xlink" x="0px" y="0px"
	 width="100%" viewBox="0 0 2816 1504" enable-background="new 0 0 2816 1504" xml:space="preserve">
<path fill="#B39750" opacity="1.000000" stroke="none" 
	d="
M281.616608,898.000000 
	C281.402100,790.144836 280.060028,683.285217 281.752594,576.818298 
	C289.509247,574.193970 375.008362,573.113831 391.476318,575.245911 
	C391.765045,579.115662 392.340637,583.261963 392.343170,587.408630 
	C392.372284,635.399841 392.314545,683.391052 392.280487,731.382263 
	C392.277924,734.987793 392.280151,738.593384 392.280151,741.895020 
	C399.881683,744.231812 630.499512,745.020142 642.665527,742.783997 
	C642.665527,739.507935 642.667175,735.959167 642.665283,732.410339 
	C642.638855,684.085938 642.611389,635.761475 642.586853,587.437073 
	C642.585632,585.104309 642.608215,582.771484 642.620972,580.438721 
	C642.643677,576.288696 644.854492,574.413208 648.877808,574.407776 
	C650.877319,574.405090 652.876770,574.369324 654.876282,574.369263 
	C683.870667,574.367920 712.865112,574.362915 741.859497,574.374939 
	C753.752319,574.379883 753.882996,574.438721 753.886353,585.764648 
	C753.923706,711.408386 753.941956,837.052185 753.933472,962.695923 
	C753.932556,976.111450 753.838989,976.130615 740.720093,976.130432 
	C711.725403,976.130005 682.730713,976.140198 653.736145,976.078918 
	C642.777100,976.055725 642.596130,975.889465 642.585327,964.800110 
	C642.543396,921.808044 642.570740,878.815979 642.572266,835.823914 
	C642.572449,831.886047 642.572327,827.948120 642.572327,824.359863 
	C635.102112,821.963074 407.651764,821.153809 392.943604,823.331055 
	C392.743256,826.559387 392.340881,830.057312 392.337219,833.555603 
	C392.291412,877.214233 392.303467,920.872864 392.300690,964.531494 
	C392.300476,967.784241 392.300659,971.036987 392.300659,973.920227 
	C384.380859,976.380554 298.081726,977.164307 282.759583,975.125977 
	C280.343903,962.654419 281.659119,949.782593 281.635345,936.987427 
	C281.611847,924.324951 281.622131,911.662476 281.616608,898.000000 
z"/>
<path fill="#B39750" opacity="1.000000" stroke="none" 
	d="
M1813.589111,625.606445 
	C1832.399536,610.133850 1850.482788,594.879150 1869.118774,580.332642 
	C1873.277466,577.086609 1879.360840,574.731445 1884.586792,574.676025 
	C1926.909912,574.226501 1969.239746,574.417236 2011.567627,574.454102 
	C2012.817505,574.455200 2014.066895,574.910767 2015.760742,575.241089 
	C2016.235229,580.002625 2012.689453,581.940002 2010.072876,584.011108 
	C1994.142212,596.620605 1978.069214,609.050354 1962.037842,621.532410 
	C1930.764282,645.882202 1899.444946,670.173340 1868.227173,694.594482 
	C1849.864380,708.959412 1831.608032,723.462036 1813.421631,738.049561 
	C1808.838135,741.726013 1803.702026,745.089050 1801.314575,751.988159 
	C1803.932617,754.653198 1806.584351,757.543274 1809.432983,760.224121 
	C1862.325439,810.000427 1915.294434,859.695435 1968.124023,909.538330 
	C1986.787231,927.146545 2005.158936,945.064819 2023.571167,962.936768 
	C2026.763672,966.035522 2030.949219,968.873779 2029.614136,975.575500 
	C2026.395630,975.830505 2023.229248,976.298889 2020.062866,976.299194 
	C1981.734253,976.302917 1943.405029,976.117493 1905.077515,976.302185 
	C1898.284790,976.334900 1893.278564,974.409851 1888.325439,969.565247 
	C1844.260864,926.466064 1800.052856,883.517334 1753.326538,843.245850 
	C1740.720093,832.380798 1729.016235,820.470459 1716.852295,809.088867 
	C1710.063477,802.736511 1709.780762,802.547668 1702.685913,808.184082 
	C1684.954834,822.270203 1667.461182,836.654846 1649.754639,850.772156 
	C1643.615112,855.667236 1642.261597,862.037476 1642.290527,869.404846 
	C1642.413452,900.734314 1642.308716,932.064575 1642.287842,963.394592 
	C1642.285400,966.998840 1642.287476,970.603149 1642.287476,975.232361 
	C1638.210571,975.562012 1635.023682,976.037415 1631.835938,976.043457 
	C1602.505859,976.099548 1573.175659,976.098877 1543.845459,976.060852 
	C1532.186646,976.045715 1532.028809,975.906067 1532.017944,964.395264 
	C1531.958618,901.735168 1531.928833,839.075134 1531.912842,776.415039 
	C1531.896973,714.421509 1531.909180,652.428040 1531.911499,590.434509 
	C1531.911621,587.768188 1531.822998,585.095276 1531.974487,582.436768 
	C1532.348755,575.866760 1533.234741,574.564636 1539.554321,574.543274 
	C1572.216431,574.432739 1604.879272,574.546204 1637.541748,574.642883 
	C1638.788696,574.646545 1640.033813,575.280029 1642.076172,575.837463 
	C1643.035400,636.089600 1641.438110,696.296875 1642.891602,756.739502 
	C1648.485718,757.632935 1651.417236,754.607178 1654.392944,752.376831 
	C1669.049316,741.391541 1683.797729,730.508484 1698.080688,719.049561 
	C1736.525269,688.206482 1774.749634,657.088806 1813.589111,625.606445 
z"/>
<path fill="#B39650" opacity="1.000000" stroke="none" 
	d="
M1334.344238,809.503418 
	C1362.407837,864.054077 1390.158569,917.928772 1417.840942,971.838501 
	C1418.219238,972.575134 1417.734497,973.754944 1417.605225,975.291382 
	C1415.385620,975.578369 1413.184204,976.108337 1410.982178,976.111023 
	C1377.661011,976.151428 1344.336548,975.857910 1311.020996,976.285217 
	C1302.040527,976.400391 1297.280029,973.087402 1293.413574,965.112610 
	C1266.679688,909.971558 1239.723145,854.935669 1212.398438,800.085144 
	C1199.778442,774.752686 1185.945679,750.027100 1173.085205,724.811035 
	C1164.009277,707.015625 1155.706787,688.827026 1146.910645,670.886719 
	C1145.089844,667.172852 1144.252441,662.393494 1137.840454,661.162964 
	C1136.371338,663.580261 1134.501709,666.194336 1133.095581,669.037598 
	C1093.232910,749.641663 1053.401611,830.261230 1013.604614,910.897766 
	C1004.464966,929.416321 995.231445,947.895386 986.531799,966.620667 
	C983.298218,973.580811 979.079956,976.402222 971.206482,976.311768 
	C939.555786,975.948303 907.897522,976.259583 876.242065,976.270813 
	C873.316956,976.271851 870.391724,975.914795 867.890015,975.751648 
	C864.618896,971.270508 867.426208,968.180298 868.993408,965.086670 
	C883.890808,935.679382 898.851501,906.304016 913.831604,876.938660 
	C931.688232,841.934387 949.563477,806.939453 967.463501,771.957397 
	C996.742920,714.736511 1026.038452,657.523865 1055.359375,600.324280 
	C1058.396729,594.398804 1061.735229,588.627808 1064.782837,582.707275 
	C1067.663086,577.111938 1072.010376,574.405518 1078.399048,574.416443 
	C1119.717041,574.487244 1161.036011,574.545837 1202.353271,574.341736 
	C1210.514160,574.301453 1215.492920,578.207947 1218.900635,584.932129 
	C1225.824707,598.594543 1232.564209,612.350769 1239.526489,625.993469 
	C1261.024780,668.119568 1282.514160,710.250488 1304.167358,752.296997 
	C1313.923950,771.242371 1324.061279,789.991821 1334.344238,809.503418 
z"/>
<path fill="#B39750" opacity="1.000000" stroke="none" 
	d="
M2250.797119,684.730347 
	C2267.907715,651.120605 2284.817383,618.242920 2301.319092,585.161865 
	C2305.273193,577.234863 2310.817871,574.178955 2319.512695,574.232727 
	C2359.496094,574.480225 2399.482910,574.448547 2439.467041,574.234985 
	C2446.299805,574.198547 2451.069824,576.661255 2454.156250,582.479797 
	C2460.241455,593.950867 2466.264404,605.456604 2472.169189,617.021423 
	C2500.336670,672.190918 2528.461670,727.382141 2556.590576,782.571411 
	C2586.680908,841.609680 2616.792236,900.637573 2646.779053,959.728333 
	C2649.102051,964.305481 2652.829834,968.618225 2651.606201,975.402832 
	C2648.718994,975.653076 2645.880371,976.111389 2643.041748,976.112732 
	C2610.720459,976.128479 2578.396240,975.827087 2546.080078,976.216675 
	C2538.209229,976.311523 2533.906006,973.458191 2530.629150,966.619324 
	C2513.362061,930.579956 2496.139160,894.512756 2478.283936,858.763428 
	C2451.201904,804.541321 2423.589600,750.584167 2396.266846,696.481812 
	C2392.815674,689.647217 2389.749512,682.617798 2386.514893,675.674072 
	C2385.530762,673.561646 2384.905273,671.187256 2383.531738,669.375366 
	C2381.817627,667.114258 2379.575684,663.850647 2377.419922,663.738037 
	C2375.437988,663.634399 2372.721436,666.800659 2371.298828,669.121155 
	C2368.700195,673.360229 2366.845215,678.052063 2364.633057,682.531738 
	C2346.647705,718.946716 2328.672119,755.366638 2310.654053,791.765381 
	C2281.397949,850.865723 2252.050049,909.920959 2222.943848,969.094971 
	C2220.358643,974.350464 2217.135254,976.342773 2211.365967,976.305786 
	C2178.712891,976.096436 2146.057617,976.190735 2113.403076,976.179382 
	C2112.403564,976.179016 2111.393799,976.242371 2110.406250,976.126282 
	C2104.722900,975.457947 2103.321777,973.346191 2105.639648,968.190308 
	C2107.409180,964.254211 2109.820801,960.612610 2111.782959,956.756592 
	C2138.519043,904.212585 2165.156738,851.618164 2191.963867,799.110474 
	C2211.346191,761.145813 2230.944580,723.291382 2250.797119,684.730347 
z"/>
</svg>
